<mxfile host="65bd71144e">
    <diagram id="nHcn8l6l7rQd3EW4lvOJ" name="Page-1">
        <mxGraphModel dx="799" dy="320" grid="1" gridSize="10" guides="1" tooltips="1" connect="1" arrows="1" fold="1" page="1" pageScale="1" pageWidth="850" pageHeight="1100" math="0" shadow="0">
            <root>
                <mxCell id="0"/>
                <mxCell id="1" parent="0"/>
                <mxCell id="2" value="Actor" style="shape=umlActor;verticalLabelPosition=bottom;verticalAlign=top;html=1;outlineConnect=0;" vertex="1" parent="1">
                    <mxGeometry x="50" y="40" width="30" height="60" as="geometry"/>
                </mxCell>
                <mxCell id="3" value="" style="shape=flexArrow;endArrow=classic;html=1;" edge="1" parent="1" target="4">
                    <mxGeometry width="50" height="50" relative="1" as="geometry">
                        <mxPoint x="110" y="80" as="sourcePoint"/>
                        <mxPoint x="170" y="80" as="targetPoint"/>
                    </mxGeometry>
                </mxCell>
                <mxCell id="4" value="" style="rounded=1;whiteSpace=wrap;html=1;" vertex="1" parent="1">
                    <mxGeometry x="190" y="60" width="90" height="40" as="geometry"/>
                </mxCell>
                <mxCell id="5" value="Login" style="text;strokeColor=none;align=center;fillColor=none;html=1;verticalAlign=middle;whiteSpace=wrap;rounded=0;" vertex="1" parent="1">
                    <mxGeometry x="195" y="55" width="80" height="50" as="geometry"/>
                </mxCell>
                <mxCell id="6" value="" style="endArrow=classic;html=1;" edge="1" parent="1">
                    <mxGeometry width="50" height="50" relative="1" as="geometry">
                        <mxPoint x="300" y="79.5" as="sourcePoint"/>
                        <mxPoint x="380" y="80" as="targetPoint"/>
                    </mxGeometry>
                </mxCell>
                <mxCell id="7" value="/api/auth/login" style="text;strokeColor=none;align=center;fillColor=none;html=1;verticalAlign=middle;whiteSpace=wrap;rounded=0;" vertex="1" parent="1">
                    <mxGeometry x="390" y="60" width="90" height="35" as="geometry"/>
                </mxCell>
                <mxCell id="8" value="" style="endArrow=classic;html=1;" edge="1" parent="1">
                    <mxGeometry width="50" height="50" relative="1" as="geometry">
                        <mxPoint x="434.5" y="90" as="sourcePoint"/>
                        <mxPoint x="434.5" y="140" as="targetPoint"/>
                    </mxGeometry>
                </mxCell>
                <mxCell id="9" value="Compare password" style="text;strokeColor=none;align=center;fillColor=none;html=1;verticalAlign=middle;whiteSpace=wrap;rounded=0;" vertex="1" parent="1">
                    <mxGeometry x="370" y="140" width="130" height="30" as="geometry"/>
                </mxCell>
                <mxCell id="10" value="" style="endArrow=classic;html=1;" edge="1" parent="1">
                    <mxGeometry width="50" height="50" relative="1" as="geometry">
                        <mxPoint x="434.5" y="170" as="sourcePoint"/>
                        <mxPoint x="434.5" y="220" as="targetPoint"/>
                    </mxGeometry>
                </mxCell>
                <mxCell id="11" value="Access Toke &amp;amp; Refresh Token" style="text;strokeColor=none;align=center;fillColor=none;html=1;verticalAlign=middle;whiteSpace=wrap;rounded=0;" vertex="1" parent="1">
                    <mxGeometry x="332.5" y="220" width="205" height="30" as="geometry"/>
                </mxCell>
                <mxCell id="12" value="" style="endArrow=classic;html=1;" edge="1" parent="1">
                    <mxGeometry width="50" height="50" relative="1" as="geometry">
                        <mxPoint x="390" y="250" as="sourcePoint"/>
                        <mxPoint x="390" y="290" as="targetPoint"/>
                    </mxGeometry>
                </mxCell>
                <mxCell id="13" value="" style="endArrow=classic;html=1;" edge="1" parent="1">
                    <mxGeometry width="50" height="50" relative="1" as="geometry">
                        <mxPoint x="480" y="250" as="sourcePoint"/>
                        <mxPoint x="480" y="300" as="targetPoint"/>
                    </mxGeometry>
                </mxCell>
                <mxCell id="14" value="Expires in 15 min" style="text;strokeColor=none;align=center;fillColor=none;html=1;verticalAlign=middle;whiteSpace=wrap;rounded=0;" vertex="1" parent="1">
                    <mxGeometry x="360" y="290" width="60" height="30" as="geometry"/>
                </mxCell>
                <mxCell id="15" value="Expires in 7 days" style="text;strokeColor=none;align=center;fillColor=none;html=1;verticalAlign=middle;whiteSpace=wrap;rounded=0;" vertex="1" parent="1">
                    <mxGeometry x="450" y="300" width="60" height="30" as="geometry"/>
                </mxCell>
                <mxCell id="16" value="Cookie" style="text;strokeColor=none;align=center;fillColor=none;html=1;verticalAlign=middle;whiteSpace=wrap;rounded=0;" vertex="1" parent="1">
                    <mxGeometry x="405" y="370" width="60" height="30" as="geometry"/>
                </mxCell>
                <mxCell id="17" value="" style="edgeStyle=segmentEdgeStyle;endArrow=classic;html=1;curved=0;rounded=0;endSize=8;startSize=8;exitX=0.25;exitY=1;exitDx=0;exitDy=0;" edge="1" parent="1" source="14">
                    <mxGeometry width="50" height="50" relative="1" as="geometry">
                        <mxPoint x="375" y="330" as="sourcePoint"/>
                        <mxPoint x="405" y="390" as="targetPoint"/>
                        <Array as="points">
                            <mxPoint x="375" y="390"/>
                        </Array>
                    </mxGeometry>
                </mxCell>
                <mxCell id="18" value="" style="edgeStyle=segmentEdgeStyle;endArrow=classic;html=1;curved=0;rounded=0;endSize=8;startSize=8;" edge="1" parent="1">
                    <mxGeometry width="50" height="50" relative="1" as="geometry">
                        <mxPoint x="500" y="330" as="sourcePoint"/>
                        <mxPoint x="465" y="380" as="targetPoint"/>
                        <Array as="points">
                            <mxPoint x="500" y="380"/>
                            <mxPoint x="465" y="380"/>
                        </Array>
                    </mxGeometry>
                </mxCell>
                <mxCell id="19" value="" style="endArrow=classic;html=1;" edge="1" parent="1">
                    <mxGeometry width="50" height="50" relative="1" as="geometry">
                        <mxPoint x="520" y="250" as="sourcePoint"/>
                        <mxPoint x="570" y="290" as="targetPoint"/>
                    </mxGeometry>
                </mxCell>
                <mxCell id="20" value="Save to Redis" style="text;strokeColor=none;align=center;fillColor=none;html=1;verticalAlign=middle;whiteSpace=wrap;rounded=0;" vertex="1" parent="1">
                    <mxGeometry x="560" y="290" width="60" height="30" as="geometry"/>
                </mxCell>
            </root>
        </mxGraphModel>
    </diagram>
</mxfile>